<svg xmlns="http://www.w3.org/2000/svg" xmlns:xlink="http://www.w3.org/1999/xlink" width="477" zoomAndPan="magnify" viewBox="0 0 357.75 310.499991" height="414" preserveAspectRatio="xMidYMid meet" version="1.0"><defs><g/><clipPath id="70cf4d7f1c"><path d="M 0.164062 169 L 174 169 L 174 305 L 0.164062 305 Z M 0.164062 169 " clip-rule="nonzero"/></clipPath><clipPath id="e61318d345"><path d="M 0.164062 200 L 161 200 L 161 305 L 0.164062 305 Z M 0.164062 200 " clip-rule="nonzero"/></clipPath><clipPath id="ff48b0f38d"><path d="M 0.164062 182 L 162 182 L 162 291 L 0.164062 291 Z M 0.164062 182 " clip-rule="nonzero"/></clipPath><clipPath id="40754786c4"><path d="M 14 0.546875 L 184 0.546875 L 184 99 L 14 99 Z M 14 0.546875 " clip-rule="nonzero"/></clipPath></defs><path fill="#0074d1" d="M 17.082031 202.523438 L 17.082031 209.039062 L 176.277344 301.453125 L 176.277344 294.9375 Z M 17.082031 202.523438 " fill-opacity="1" fill-rule="nonzero"/><path fill="#b2b0af" d="M 176.277344 294.9375 L 176.277344 301.453125 L 335.105469 209.835938 L 335.105469 203.320312 Z M 176.277344 294.9375 " fill-opacity="1" fill-rule="nonzero"/><path fill="#e9e8e6" d="M 17.082031 202.523438 L 176.277344 294.9375 L 335.105469 203.320312 L 175.914062 110.90625 Z M 17.082031 202.523438 " fill-opacity="1" fill-rule="nonzero"/><path fill="#d6d4d2" d="M 348.941406 164.675781 L 194.308594 74.867188 C 190.832031 72.84375 186.125 73.132812 180.839844 76.171875 L 335.539062 165.980469 C 340.753906 162.941406 345.464844 162.648438 348.941406 164.675781 Z M 348.941406 164.675781 " fill-opacity="1" fill-rule="nonzero"/><path fill="#c4c2c0" d="M 180.765625 76.171875 L 335.46875 165.980469 C 330.6875 168.730469 326.34375 173.289062 323.011719 178.570312 L 168.308594 88.761719 C 171.640625 83.480469 175.984375 78.921875 180.765625 76.171875 Z M 180.765625 76.171875 " fill-opacity="1" fill-rule="nonzero"/><path fill="#b2b0af" d="M 335.46875 165.980469 C 324.964844 171.984375 316.566406 186.675781 316.566406 198.6875 C 316.566406 210.703125 325.113281 215.550781 335.613281 209.542969 C 346.117188 203.539062 354.515625 188.847656 354.515625 176.835938 C 354.445312 164.820312 345.898438 159.972656 335.46875 165.980469 Z M 335.46875 165.980469 " fill-opacity="1" fill-rule="nonzero"/><path fill="#a09d9c" d="M 339.8125 185.300781 C 339.8125 188.050781 337.929688 191.308594 335.539062 192.683594 C 333.152344 194.058594 331.269531 192.972656 331.269531 190.222656 C 331.269531 187.472656 333.152344 184.214844 335.539062 182.839844 C 337.859375 181.464844 339.8125 182.550781 339.8125 185.300781 Z M 335.539062 191.523438 C 337.351562 190.511719 338.800781 187.980469 338.800781 185.878906 C 338.800781 183.78125 337.351562 182.984375 335.539062 184 C 333.730469 185.011719 332.28125 187.542969 332.28125 189.644531 C 332.28125 191.742188 333.730469 192.539062 335.539062 191.523438 " fill-opacity="1" fill-rule="nonzero"/><path fill="#a09d9c" d="M 347.636719 180.742188 C 347.636719 188.414062 342.277344 197.820312 335.539062 201.65625 C 328.878906 205.492188 323.375 202.378906 323.375 194.710938 C 323.375 187.039062 328.734375 177.628906 335.46875 173.796875 C 342.132812 170.03125 347.636719 173.070312 347.636719 180.742188 Z M 335.539062 200.28125 C 341.550781 196.808594 346.476562 188.339844 346.40625 181.464844 C 346.40625 174.519531 341.480469 171.769531 335.46875 175.242188 C 329.457031 178.714844 324.53125 187.183594 324.605469 194.058594 C 324.605469 201.003906 329.53125 203.753906 335.539062 200.28125 " fill-opacity="1" fill-rule="nonzero"/><path fill="#a09d9c" d="M 343.726562 183.058594 C 343.726562 188.269531 340.105469 194.566406 335.542969 197.167969 C 331.050781 199.773438 327.355469 197.675781 327.285156 192.464844 C 327.285156 187.253906 330.90625 180.960938 335.46875 178.355469 C 340.03125 175.75 343.726562 177.847656 343.726562 183.058594 Z M 335.539062 195.941406 C 339.453125 193.695312 342.640625 188.195312 342.640625 183.710938 C 342.640625 179.222656 339.453125 177.414062 335.539062 179.65625 C 331.628906 181.898438 328.441406 187.398438 328.441406 191.886719 C 328.441406 196.375 331.628906 198.183594 335.539062 195.941406 " fill-opacity="1" fill-rule="nonzero"/><path fill="#a09d9c" d="M 351.546875 178.5 C 351.546875 188.628906 344.378906 201.078125 335.539062 206.144531 C 326.703125 211.210938 319.460938 207.15625 319.460938 196.953125 C 319.460938 186.820312 326.632812 174.375 335.46875 169.308594 C 344.304688 164.242188 351.546875 168.367188 351.546875 178.5 Z M 335.539062 204.695312 C 343.652344 199.992188 350.242188 188.628906 350.242188 179.292969 C 350.242188 169.960938 343.582031 166.195312 335.46875 170.898438 C 327.355469 175.605469 320.765625 186.964844 320.765625 196.300781 C 320.839844 205.636719 327.429688 209.398438 335.539062 204.695312 " fill-opacity="1" fill-rule="nonzero"/><path fill="#d6d4d2" d="M 187.285156 258.175781 L 32.652344 168.367188 C 29.175781 166.339844 24.46875 166.628906 19.183594 169.671875 L 173.8125 259.476562 C 179.101562 256.4375 183.878906 256.148438 187.285156 258.175781 Z M 187.285156 258.175781 " fill-opacity="1" fill-rule="nonzero"/><g clip-path="url(#70cf4d7f1c)"><path fill="#3f9ae0" d="M 5.785156 214.539062 L 160.414062 304.347656 C 157.011719 302.390625 154.910156 298.195312 154.910156 292.1875 C 154.910156 280.175781 163.3125 265.558594 173.8125 259.476562 L 19.109375 169.671875 C 8.609375 175.675781 0.207031 190.367188 0.207031 202.378906 C 0.28125 208.386719 2.378906 212.585938 5.785156 214.539062 Z M 5.785156 214.539062 " fill-opacity="1" fill-rule="nonzero"/></g><path fill="#c4c2c0" d="M 19.109375 169.671875 L 173.8125 259.476562 C 169.03125 262.226562 164.6875 266.789062 161.355469 272.070312 L 6.652344 182.261719 C 9.984375 176.980469 14.402344 172.421875 19.109375 169.671875 Z M 19.109375 169.671875 " fill-opacity="1" fill-rule="nonzero"/><g clip-path="url(#e61318d345)"><path fill="#c4c2c0" d="M 154.980469 290.378906 C 154.910156 290.957031 154.910156 291.609375 154.910156 292.1875 C 154.910156 298.121094 157.011719 302.390625 160.414062 304.347656 L 5.785156 214.539062 C 2.378906 212.585938 0.28125 208.386719 0.28125 202.378906 C 0.28125 201.800781 0.28125 201.222656 0.351562 200.570312 Z M 154.980469 290.378906 " fill-opacity="1" fill-rule="nonzero"/></g><g clip-path="url(#ff48b0f38d)"><path fill="#e9e8e6" d="M 6.652344 182.261719 L 161.355469 272.070312 C 157.734375 277.789062 155.34375 284.371094 154.980469 290.378906 L 0.28125 200.570312 C 0.714844 194.566406 3.105469 187.980469 6.652344 182.261719 Z M 6.652344 182.261719 " fill-opacity="1" fill-rule="nonzero"/></g><path fill="#b2b0af" d="M 173.8125 259.476562 C 163.3125 265.484375 154.910156 280.175781 154.910156 292.1875 C 154.910156 304.203125 163.457031 309.050781 173.957031 303.042969 C 184.460938 297.035156 192.859375 282.347656 192.859375 270.332031 C 192.789062 258.320312 184.242188 253.472656 173.8125 259.476562 Z M 173.8125 259.476562 " fill-opacity="1" fill-rule="nonzero"/><path fill="#a09d9c" d="M 178.160156 278.800781 C 178.160156 281.550781 176.277344 284.808594 173.886719 286.183594 C 171.496094 287.558594 169.613281 286.472656 169.613281 283.722656 C 169.613281 280.972656 171.496094 277.714844 173.886719 276.339844 C 176.203125 274.964844 178.160156 276.050781 178.160156 278.800781 Z M 173.886719 285.023438 C 175.695312 284.011719 177.144531 281.476562 177.144531 279.378906 C 177.144531 277.28125 175.695312 276.484375 173.886719 277.496094 C 172.074219 278.511719 170.625 281.042969 170.625 283.140625 C 170.625 285.242188 172.074219 286.039062 173.886719 285.023438 " fill-opacity="1" fill-rule="nonzero"/><path fill="#a09d9c" d="M 185.980469 274.242188 C 185.980469 281.914062 180.621094 291.320312 173.886719 295.15625 C 167.222656 298.992188 161.71875 295.878906 161.71875 288.207031 C 161.71875 280.539062 167.078125 271.128906 173.8125 267.292969 C 180.546875 263.53125 185.980469 266.570312 185.980469 274.242188 Z M 173.886719 293.78125 C 179.898438 290.308594 184.820312 281.839844 184.75 274.964844 C 184.75 268.019531 179.824219 265.269531 173.8125 268.742188 C 167.800781 272.214844 162.875 280.683594 162.949219 287.558594 C 162.949219 294.503906 167.875 297.253906 173.886719 293.78125 " fill-opacity="1" fill-rule="nonzero"/><path fill="#a09d9c" d="M 182.070312 276.558594 C 182.070312 281.765625 178.449219 288.0625 173.886719 290.667969 C 169.394531 293.273438 165.703125 291.175781 165.628906 285.964844 C 165.628906 280.753906 169.25 274.457031 173.8125 271.851562 C 178.375 269.246094 182.070312 271.347656 182.070312 276.558594 Z M 173.886719 289.4375 C 177.796875 287.195312 180.984375 281.695312 180.984375 277.207031 C 180.984375 272.722656 177.796875 270.914062 173.886719 273.15625 C 169.972656 275.398438 166.789062 280.898438 166.789062 285.386719 C 166.789062 289.871094 169.972656 291.683594 173.886719 289.4375 " fill-opacity="1" fill-rule="nonzero"/><path fill="#a09d9c" d="M 189.890625 271.996094 C 189.890625 282.128906 182.722656 294.578125 173.886719 299.640625 C 165.050781 304.707031 157.808594 300.65625 157.808594 290.453125 C 157.808594 280.320312 164.976562 267.871094 173.8125 262.808594 C 182.648438 257.742188 189.890625 261.867188 189.890625 271.996094 Z M 173.886719 298.195312 C 181.996094 293.492188 188.589844 282.128906 188.589844 272.792969 C 188.589844 263.457031 181.925781 259.695312 173.8125 264.398438 C 165.703125 269.101562 159.109375 280.464844 159.109375 289.800781 C 159.183594 299.136719 165.773438 302.898438 173.886719 298.195312 " fill-opacity="1" fill-rule="nonzero"/><path fill="#d6d4d2" d="M 316.636719 196.878906 C 316.566406 197.460938 316.566406 198.109375 316.566406 198.6875 C 316.566406 204.625 318.664062 208.894531 322.070312 210.847656 L 167.4375 121.039062 C 164.035156 119.085938 161.933594 114.886719 161.933594 108.882812 C 161.933594 108.300781 161.933594 107.722656 162.007812 107.070312 Z M 316.636719 196.878906 " fill-opacity="1" fill-rule="nonzero"/><path fill="#d6d4d2" d="M 168.308594 88.761719 L 323.011719 178.570312 C 319.390625 184.289062 317 190.875 316.636719 196.878906 L 161.933594 107.070312 C 162.371094 101.066406 164.757812 94.480469 168.308594 88.761719 Z M 168.308594 88.761719 " fill-opacity="1" fill-rule="nonzero"/><path fill="#d6d4d2" d="M 201.335938 181.25 L 204.375 183.058594 L 228.496094 169.164062 L 225.453125 167.355469 Z M 201.335938 181.25 " fill-opacity="1" fill-rule="nonzero"/><path fill="#d6d4d2" d="M 219.949219 192.03125 L 222.992188 193.839844 L 247.109375 179.945312 L 244.066406 178.136719 Z M 219.949219 192.03125 " fill-opacity="1" fill-rule="nonzero"/><path fill="#d6d4d2" d="M 210.605469 186.675781 L 213.648438 188.484375 L 237.765625 174.589844 L 234.722656 172.78125 Z M 210.605469 186.675781 " fill-opacity="1" fill-rule="nonzero"/><path fill="#3f9ae0" d="M 171.0625 163.664062 L 195.035156 177.558594 L 219.152344 163.664062 L 195.179688 149.769531 Z M 171.0625 163.664062 " fill-opacity="1" fill-rule="nonzero"/><path fill="#d6d4d2" d="M 80.527344 182.695312 L 101.460938 194.855469 L 187.5 145.28125 L 166.496094 133.125 Z M 80.527344 182.695312 " fill-opacity="1" fill-rule="nonzero"/><path fill="#d6d4d2" d="M 210.75 259.695312 C 210.53125 259.695312 210.242188 259.621094 210.027344 259.476562 L 170.84375 236.753906 C 170.410156 236.539062 170.121094 236.03125 170.121094 235.523438 C 170.121094 235.019531 170.410156 234.582031 170.84375 234.367188 L 256.8125 184.792969 C 257.25 184.578125 257.753906 184.578125 258.191406 184.792969 L 297.371094 207.519531 C 297.808594 207.734375 298.097656 208.242188 298.097656 208.75 C 298.097656 209.253906 297.808594 209.6875 297.371094 209.90625 L 211.402344 259.476562 C 211.183594 259.621094 210.96875 259.695312 210.75 259.695312 Z M 174.320312 235.523438 L 210.75 256.65625 L 293.96875 208.675781 L 257.539062 187.542969 Z M 174.320312 235.523438 " fill-opacity="1" fill-rule="nonzero"/><path fill="#efc348" d="M 140.207031 181.539062 L 164.179688 195.433594 L 188.296875 181.539062 L 164.324219 167.570312 Z M 140.207031 181.539062 " fill-opacity="1" fill-rule="nonzero"/><path fill="#d6d4d2" d="M 170.410156 199.050781 L 173.449219 200.859375 L 197.570312 186.964844 L 194.527344 185.15625 Z M 170.410156 199.050781 " fill-opacity="1" fill-rule="nonzero"/><path fill="#d6d4d2" d="M 179.679688 204.480469 L 182.722656 206.289062 L 206.839844 192.394531 L 203.796875 190.585938 Z M 179.679688 204.480469 " fill-opacity="1" fill-rule="nonzero"/><path fill="#6dcb60" d="M 109.28125 199.339844 L 133.253906 213.234375 L 157.371094 199.339844 L 133.398438 185.445312 Z M 109.28125 199.339844 " fill-opacity="1" fill-rule="nonzero"/><path fill="#d6d4d2" d="M 139.484375 216.925781 L 142.523438 218.734375 L 166.644531 204.839844 L 163.601562 203.03125 Z M 139.484375 216.925781 " fill-opacity="1" fill-rule="nonzero"/><path fill="#d6d4d2" d="M 148.753906 222.28125 L 151.796875 224.089844 L 175.914062 210.195312 L 172.871094 208.386719 Z M 148.753906 222.28125 " fill-opacity="1" fill-rule="nonzero"/><path fill="#d6d4d2" d="M 158.097656 227.707031 L 161.136719 229.519531 L 185.257812 215.625 L 182.214844 213.8125 Z M 158.097656 227.707031 " fill-opacity="1" fill-rule="nonzero"/><path fill="#d6d4d2" d="M 189.023438 209.90625 L 192.0625 211.714844 L 216.183594 197.820312 L 213.140625 196.011719 Z M 189.023438 209.90625 " fill-opacity="1" fill-rule="nonzero"/><path fill="#efc348" d="M 259.277344 178.5 L 247.179688 197.386719 L 246.3125 201.800781 L 244.789062 209.398438 L 251.671875 205.5625 L 260.507812 200.644531 L 269.921875 185.953125 Z M 259.277344 178.5 " fill-opacity="1" fill-rule="nonzero"/><path fill="#ffd651" d="M 251.960938 173.433594 L 247.109375 197.386719 L 259.203125 178.5 Z M 251.960938 173.433594 " fill-opacity="1" fill-rule="nonzero"/><path fill="#ddb040" d="M 269.851562 185.953125 L 260.433594 200.644531 L 277.453125 191.234375 Z M 269.851562 185.953125 " fill-opacity="1" fill-rule="nonzero"/><path fill="#f25a5a" d="M 344.160156 88.183594 L 280.425781 188.414062 C 277.019531 193.769531 268.113281 194.203125 260.507812 189.355469 C 252.902344 184.503906 249.570312 176.253906 253.046875 170.898438 L 316.78125 70.742188 C 313.449219 76.097656 316.78125 84.277344 324.316406 89.125 C 331.847656 93.902344 340.753906 93.539062 344.160156 88.183594 Z M 344.160156 88.183594 " fill-opacity="1" fill-rule="nonzero"/><path fill="#dd4a4a" d="M 324.316406 89.125 C 322.214844 87.820312 320.476562 86.15625 319.027344 84.421875 L 255.292969 184.648438 C 256.667969 186.386719 258.480469 187.980469 260.507812 189.355469 C 262.316406 190.511719 264.199219 191.378906 266.085938 191.960938 L 329.820312 91.730469 C 328.007812 91.152344 326.125 90.28125 324.316406 89.125 Z M 324.316406 89.125 " fill-opacity="1" fill-rule="nonzero"/><path fill="#f25a5a" d="M 316.78125 70.742188 L 253.046875 170.898438 C 250.585938 174.734375 251.671875 180.164062 255.292969 184.648438 L 319.027344 84.421875 C 315.40625 79.933594 314.320312 74.652344 316.78125 70.742188 Z M 316.78125 70.742188 " fill-opacity="1" fill-rule="nonzero"/><path fill="#cc4848" d="M 329.890625 91.65625 L 266.15625 191.886719 C 272.09375 193.625 277.816406 192.394531 280.425781 188.339844 L 344.160156 88.113281 C 341.625 92.238281 335.832031 93.46875 329.890625 91.65625 Z M 329.890625 91.65625 " fill-opacity="1" fill-rule="nonzero"/><path fill="#efc348" d="M 325.761719 56.632812 L 316.78125 70.671875 C 314.246094 74.578125 315.40625 80.007812 319.171875 84.566406 L 328.152344 70.527344 C 324.386719 65.96875 323.230469 60.539062 325.761719 56.632812 Z M 325.761719 56.632812 " fill-opacity="1" fill-rule="nonzero"/><path fill="#ddb040" d="M 333.222656 75.085938 C 331.195312 73.78125 329.457031 72.261719 328.082031 70.527344 L 319.101562 84.566406 C 320.476562 86.230469 322.214844 87.820312 324.242188 89.125 C 326.054688 90.28125 328.007812 91.152344 329.890625 91.730469 L 338.871094 77.691406 C 336.988281 77.113281 335.105469 76.242188 333.222656 75.085938 Z M 333.222656 75.085938 " fill-opacity="1" fill-rule="nonzero"/><path fill="#cea03a" d="M 338.871094 77.617188 L 329.890625 91.65625 C 335.832031 93.394531 341.550781 92.164062 344.160156 88.113281 L 353.140625 74.074219 C 350.535156 78.199219 344.8125 79.355469 338.871094 77.617188 Z M 338.871094 77.617188 " fill-opacity="1" fill-rule="nonzero"/><path fill="#ffd651" d="M 345.609375 55.691406 C 353.140625 60.539062 356.542969 68.789062 353.140625 74.074219 C 349.738281 79.425781 340.828125 79.863281 333.222656 75.011719 C 325.691406 70.164062 322.285156 61.914062 325.761719 56.558594 C 329.167969 51.277344 338.074219 50.84375 345.609375 55.691406 Z M 345.609375 55.691406 " fill-opacity="1" fill-rule="nonzero"/><path fill="#434240" d="M 251.597656 205.5625 L 244.71875 209.398438 L 246.238281 201.800781 Z M 251.597656 205.5625 " fill-opacity="1" fill-rule="nonzero"/><path fill="#d6d4d2" d="M 201.335938 232.992188 C 201.117188 232.992188 200.828125 232.917969 200.609375 232.773438 L 189.167969 226.117188 C 188.515625 225.753906 188.296875 224.886719 188.660156 224.234375 C 189.023438 223.582031 189.890625 223.367188 190.542969 223.730469 L 201.988281 230.386719 C 202.636719 230.75 202.855469 231.617188 202.492188 232.269531 C 202.277344 232.703125 201.84375 232.992188 201.335938 232.992188 Z M 201.335938 232.992188 " fill-opacity="1" fill-rule="nonzero"/><path fill="#d6d4d2" d="M 243.414062 240.226562 C 243.199219 240.226562 242.90625 240.15625 242.691406 240.011719 L 231.246094 233.355469 C 230.59375 232.992188 230.378906 232.125 230.738281 231.472656 C 231.101562 230.820312 231.972656 230.605469 232.625 230.964844 L 244.066406 237.625 C 244.71875 237.984375 244.9375 238.851562 244.574219 239.503906 C 244.355469 239.9375 243.847656 240.226562 243.414062 240.226562 Z M 243.414062 240.226562 " fill-opacity="1" fill-rule="nonzero"/><path fill="#d6d4d2" d="M 240.878906 209.835938 C 240.664062 209.835938 240.371094 209.761719 240.15625 209.617188 L 228.785156 203.03125 C 228.132812 202.667969 227.914062 201.800781 228.277344 201.148438 C 228.640625 200.5 229.507812 200.28125 230.160156 200.644531 L 241.605469 207.300781 C 242.253906 207.664062 242.472656 208.53125 242.109375 209.183594 C 241.820312 209.617188 241.386719 209.835938 240.878906 209.835938 Z M 240.878906 209.835938 " fill-opacity="1" fill-rule="nonzero"/><path fill="#006cb5" d="M 24.976562 135.296875 L 14.402344 129.144531 L 14.332031 92.238281 L 24.90625 98.386719 Z M 24.976562 135.296875 " fill-opacity="1" fill-rule="nonzero"/><g clip-path="url(#40754786c4)"><path fill="#3f9ae0" d="M 24.90625 98.316406 L 14.332031 92.164062 L 173.089844 0.546875 L 183.664062 6.699219 Z M 24.90625 98.316406 " fill-opacity="1" fill-rule="nonzero"/></g><path fill="#006cb5" d="M 24.90625 98.316406 L 14.332031 92.164062 L 138.46875 20.59375 L 149.042969 26.742188 Z M 24.90625 98.316406 " fill-opacity="1" fill-rule="nonzero"/><path fill="#3f9ae0" d="M 24.90625 98.316406 L 14.332031 92.164062 L 67.347656 61.554688 L 77.921875 67.703125 Z M 24.90625 98.316406 " fill-opacity="1" fill-rule="nonzero"/><path fill="#0074d1" d="M 183.664062 6.699219 L 183.734375 43.605469 L 24.976562 135.296875 L 24.90625 98.386719 Z M 183.664062 6.699219 " fill-opacity="1" fill-rule="nonzero"/><path fill="#b2b0af" d="M 40.621094 109.460938 L 38.664062 108.300781 C 39.75 107.652344 40.621094 106.925781 41.199219 105.988281 L 43.15625 107.144531 C 42.578125 108.085938 41.707031 108.808594 40.621094 109.460938 Z M 40.621094 109.460938 " fill-opacity="1" fill-rule="nonzero"/><path fill="#b2b0af" d="M 41.273438 101.355469 L 43.226562 102.511719 C 43.734375 102.800781 43.953125 103.382812 43.953125 104.320312 C 43.953125 105.335938 43.664062 106.277344 43.082031 107.144531 L 41.128906 105.988281 C 41.707031 105.117188 41.996094 104.175781 41.996094 103.164062 C 41.996094 102.296875 41.78125 101.644531 41.273438 101.355469 Z M 41.273438 101.355469 " fill-opacity="1" fill-rule="nonzero"/><path fill="#b2b0af" d="M 37.578125 111.195312 L 35.625 110.039062 L 38.59375 108.300781 L 40.546875 109.460938 Z M 37.578125 111.195312 " fill-opacity="1" fill-rule="nonzero"/><path fill="#b2b0af" d="M 44.242188 97.445312 L 46.199219 98.605469 C 45.691406 98.316406 45.109375 98.242188 44.460938 98.242188 L 42.503906 97.085938 C 43.15625 97.085938 43.734375 97.15625 44.242188 97.445312 Z M 44.242188 97.445312 " fill-opacity="1" fill-rule="nonzero"/><path fill="#b2b0af" d="M 40.765625 99.546875 L 38.808594 98.386719 C 40.1875 97.59375 41.417969 97.15625 42.503906 97.085938 L 44.460938 98.242188 C 43.445312 98.316406 42.214844 98.75 40.765625 99.546875 Z M 40.765625 99.546875 " fill-opacity="1" fill-rule="nonzero"/><path fill="#b2b0af" d="M 33.886719 103.527344 L 31.929688 102.367188 L 38.808594 98.386719 L 40.765625 99.546875 Z M 33.886719 103.527344 " fill-opacity="1" fill-rule="nonzero"/><path fill="#b2b0af" d="M 33.957031 121.835938 L 32.003906 120.675781 L 31.929688 102.367188 L 33.886719 103.527344 Z M 33.957031 121.835938 " fill-opacity="1" fill-rule="nonzero"/><path fill="#ffffff" d="M 46.847656 99.183594 C 47.429688 99.835938 47.71875 100.847656 47.71875 102.222656 C 47.71875 103.527344 47.429688 104.902344 46.847656 106.203125 C 46.269531 107.507812 45.472656 108.738281 44.460938 109.894531 C 43.445312 110.980469 42.214844 111.992188 40.765625 112.789062 L 37.578125 114.671875 L 37.578125 119.738281 L 33.886719 121.835938 L 33.8125 103.527344 L 40.691406 99.546875 C 42.070312 98.75 43.300781 98.316406 44.386719 98.242188 C 45.472656 98.171875 46.269531 98.460938 46.847656 99.183594 Z M 43.15625 107.144531 C 43.734375 106.277344 44.023438 105.335938 44.023438 104.320312 C 44.023438 103.308594 43.734375 102.65625 43.15625 102.441406 C 42.578125 102.222656 41.707031 102.441406 40.621094 103.089844 L 37.652344 104.828125 L 37.652344 111.195312 L 40.621094 109.460938 C 41.707031 108.808594 42.578125 108.085938 43.15625 107.144531 " fill-opacity="1" fill-rule="nonzero"/><path fill="#b2b0af" d="M 154.621094 43.679688 L 152.664062 42.519531 C 153.75 41.867188 154.621094 41.144531 155.199219 40.203125 L 157.15625 41.363281 C 156.574219 42.304688 155.777344 43.027344 154.621094 43.679688 Z M 154.621094 43.679688 " fill-opacity="1" fill-rule="nonzero"/><path fill="#b2b0af" d="M 155.34375 35.574219 L 157.300781 36.730469 C 157.808594 37.019531 158.023438 37.597656 158.023438 38.539062 C 158.023438 39.554688 157.734375 40.492188 157.15625 41.363281 L 155.199219 40.203125 C 155.777344 39.335938 156.070312 38.394531 156.070312 37.382812 C 156.070312 36.511719 155.777344 35.863281 155.34375 35.574219 Z M 155.34375 35.574219 " fill-opacity="1" fill-rule="nonzero"/><path fill="#b2b0af" d="M 151.652344 45.414062 L 149.695312 44.257812 L 152.664062 42.519531 L 154.621094 43.679688 Z M 151.652344 45.414062 " fill-opacity="1" fill-rule="nonzero"/><path fill="#b2b0af" d="M 158.242188 31.664062 L 160.195312 32.824219 C 159.691406 32.535156 159.109375 32.460938 158.457031 32.460938 L 156.503906 31.304688 C 157.226562 31.304688 157.808594 31.375 158.242188 31.664062 Z M 158.242188 31.664062 " fill-opacity="1" fill-rule="nonzero"/><path fill="#b2b0af" d="M 154.835938 33.761719 L 152.882812 32.605469 C 154.257812 31.808594 155.488281 31.375 156.574219 31.304688 L 158.53125 32.460938 C 157.445312 32.535156 156.214844 32.96875 154.835938 33.761719 Z M 154.835938 33.761719 " fill-opacity="1" fill-rule="nonzero"/><path fill="#b2b0af" d="M 147.957031 37.742188 L 146 36.585938 L 152.882812 32.605469 L 154.835938 33.761719 Z M 147.957031 37.742188 " fill-opacity="1" fill-rule="nonzero"/><path fill="#b2b0af" d="M 147.957031 56.054688 L 146 54.894531 L 145.929688 36.585938 L 147.882812 37.742188 Z M 147.957031 56.054688 " fill-opacity="1" fill-rule="nonzero"/><path fill="#ffffff" d="M 160.921875 33.402344 C 161.5 34.054688 161.789062 35.066406 161.789062 36.441406 C 161.789062 37.742188 161.5 39.117188 160.921875 40.421875 C 160.339844 41.722656 159.546875 42.953125 158.53125 44.113281 C 157.515625 45.199219 156.285156 46.210938 154.835938 47.007812 L 151.652344 48.886719 L 151.652344 53.953125 L 147.957031 56.054688 L 147.882812 37.742188 L 154.765625 33.761719 C 156.140625 32.96875 157.371094 32.535156 158.457031 32.460938 C 159.546875 32.386719 160.339844 32.679688 160.921875 33.402344 Z M 157.15625 41.363281 C 157.734375 40.492188 158.023438 39.554688 158.023438 38.539062 C 158.023438 37.527344 157.734375 36.875 157.15625 36.660156 C 156.574219 36.441406 155.707031 36.660156 154.621094 37.308594 L 151.652344 39.046875 L 151.652344 45.414062 L 154.621094 43.679688 C 155.777344 43.027344 156.574219 42.304688 157.15625 41.363281 " fill-opacity="1" fill-rule="nonzero"/><path fill="#b2b0af" d="M 136.730469 62.566406 L 134.773438 61.40625 L 134.773438 54.894531 L 136.730469 56.054688 Z M 136.730469 62.566406 " fill-opacity="1" fill-rule="nonzero"/><path fill="#b2b0af" d="M 138.6875 51.203125 L 136.730469 50.046875 L 140.929688 39.480469 L 142.886719 40.636719 Z M 138.6875 51.203125 " fill-opacity="1" fill-rule="nonzero"/><path fill="#b2b0af" d="M 142.886719 40.636719 L 140.929688 39.480469 L 144.550781 37.382812 L 146.507812 38.539062 Z M 142.886719 40.636719 " fill-opacity="1" fill-rule="nonzero"/><path fill="#b2b0af" d="M 117.101562 55.546875 L 115.148438 54.386719 L 128.546875 46.644531 L 130.503906 47.804688 Z M 117.101562 55.546875 " fill-opacity="1" fill-rule="nonzero"/><path fill="#b2b0af" d="M 136.660156 55.980469 L 134.703125 54.824219 L 128.980469 47.296875 L 130.9375 48.453125 Z M 136.660156 55.980469 " fill-opacity="1" fill-rule="nonzero"/><path fill="#b2b0af" d="M 130.503906 47.804688 L 128.546875 46.644531 L 132.457031 44.402344 L 134.414062 45.558594 Z M 130.503906 47.804688 " fill-opacity="1" fill-rule="nonzero"/><path fill="#ffffff" d="M 146.507812 38.539062 L 140.351562 53.953125 L 140.351562 60.394531 L 136.660156 62.492188 L 136.660156 55.980469 L 130.9375 48.453125 L 130.429688 47.804688 L 134.339844 45.558594 L 138.613281 51.203125 L 142.8125 40.636719 Z M 146.507812 38.539062 " fill-opacity="1" fill-rule="nonzero"/><path fill="#b2b0af" d="M 131.007812 48.453125 L 129.054688 47.296875 L 128.546875 46.644531 L 130.503906 47.804688 Z M 131.007812 48.453125 " fill-opacity="1" fill-rule="nonzero"/><path fill="#b2b0af" d="M 122.246094 70.886719 L 120.289062 69.730469 L 120.21875 54.894531 L 122.171875 56.054688 Z M 122.246094 70.886719 " fill-opacity="1" fill-rule="nonzero"/><path fill="#b2b0af" d="M 117.101562 58.949219 L 115.148438 57.789062 L 115.148438 54.316406 L 117.101562 55.472656 Z M 117.101562 58.949219 " fill-opacity="1" fill-rule="nonzero"/><path fill="#ffffff" d="M 130.503906 47.804688 L 131.007812 48.453125 L 131.007812 50.914062 L 125.9375 53.882812 L 126.011719 68.71875 L 122.316406 70.816406 L 122.246094 55.980469 L 117.175781 58.949219 L 117.175781 55.472656 Z M 130.503906 47.804688 " fill-opacity="1" fill-rule="nonzero"/><path fill="#b2b0af" d="M 104.140625 76.460938 L 102.183594 75.300781 C 102.472656 75.449219 102.835938 75.59375 103.195312 75.59375 C 103.921875 75.664062 104.789062 75.375 105.730469 74.867188 C 106.671875 74.289062 107.542969 73.566406 108.265625 72.625 C 109.0625 71.683594 109.644531 70.671875 110.078125 69.511719 L 112.035156 70.671875 C 111.597656 71.828125 111.019531 72.84375 110.222656 73.78125 C 109.425781 74.722656 108.628906 75.449219 107.6875 76.027344 C 106.746094 76.53125 105.878906 76.824219 105.152344 76.75 C 104.71875 76.675781 104.429688 76.605469 104.140625 76.460938 Z M 104.140625 76.460938 " fill-opacity="1" fill-rule="nonzero"/><path fill="#b2b0af" d="M 109.207031 62.710938 L 111.164062 63.867188 C 111.453125 64.011719 111.742188 64.304688 111.960938 64.59375 C 112.394531 65.242188 112.613281 66.113281 112.613281 67.269531 C 112.613281 68.425781 112.394531 69.511719 111.960938 70.671875 L 110.003906 69.511719 C 110.441406 68.355469 110.65625 67.269531 110.65625 66.113281 C 110.65625 65.027344 110.441406 64.085938 110.003906 63.433594 C 109.789062 63.144531 109.5 62.855469 109.207031 62.710938 Z M 109.207031 62.710938 " fill-opacity="1" fill-rule="nonzero"/><path fill="#b2b0af" d="M 101.242188 80.441406 L 99.285156 79.28125 C 98.851562 78.992188 98.488281 78.703125 98.128906 78.269531 C 97.402344 77.257812 96.96875 75.882812 96.96875 74.074219 C 96.96875 72.261719 97.332031 70.453125 98.054688 68.574219 C 98.777344 66.691406 99.867188 64.953125 101.167969 63.363281 C 102.472656 61.769531 103.992188 60.46875 105.660156 59.527344 C 107.324219 58.585938 108.847656 58.152344 110.148438 58.152344 C 110.875 58.222656 111.527344 58.367188 112.105469 58.730469 L 114.0625 59.886719 C 113.480469 59.527344 112.828125 59.382812 112.105469 59.308594 C 110.800781 59.238281 109.28125 59.671875 107.613281 60.683594 C 105.949219 61.625 104.5 62.929688 103.125 64.519531 C 101.820312 66.113281 100.734375 67.847656 100.011719 69.730469 C 99.285156 71.613281 98.925781 73.421875 98.925781 75.230469 C 98.925781 77.039062 99.285156 78.414062 100.082031 79.425781 C 100.371094 79.789062 100.808594 80.152344 101.242188 80.441406 Z M 101.242188 80.441406 " fill-opacity="1" fill-rule="nonzero"/><path fill="#ffffff" d="M 115.21875 60.902344 C 116.015625 61.914062 116.378906 63.289062 116.378906 65.097656 C 116.378906 66.90625 116.015625 68.71875 115.21875 70.597656 C 114.496094 72.480469 113.410156 74.21875 112.105469 75.738281 C 110.800781 77.328125 109.28125 78.632812 107.617188 79.574219 C 105.949219 80.511719 104.5 80.949219 103.125 80.875 C 101.820312 80.800781 100.734375 80.296875 100.011719 79.28125 C 99.285156 78.269531 98.851562 76.894531 98.851562 75.085938 C 98.851562 73.277344 99.214844 71.46875 99.9375 69.585938 C 100.664062 67.703125 101.75 65.96875 103.050781 64.375 C 104.355469 62.78125 105.878906 61.480469 107.542969 60.539062 C 109.207031 59.597656 110.730469 59.164062 112.035156 59.164062 C 113.410156 59.382812 114.496094 59.886719 115.21875 60.902344 Z M 112.035156 70.671875 C 112.46875 69.511719 112.683594 68.425781 112.683594 67.269531 C 112.683594 66.183594 112.46875 65.242188 112.035156 64.59375 C 111.597656 63.941406 111.019531 63.578125 110.222656 63.507812 C 109.425781 63.433594 108.628906 63.722656 107.6875 64.230469 C 106.746094 64.738281 105.878906 65.53125 105.152344 66.402344 C 104.355469 67.34375 103.777344 68.355469 103.34375 69.511719 C 102.90625 70.671875 102.691406 71.828125 102.691406 72.914062 C 102.691406 74.074219 102.90625 74.941406 103.34375 75.59375 C 103.777344 76.242188 104.355469 76.605469 105.152344 76.675781 C 105.878906 76.75 106.746094 76.460938 107.6875 75.953125 C 108.628906 75.375 109.5 74.652344 110.222656 73.710938 C 111.019531 72.84375 111.597656 71.828125 112.035156 70.671875 " fill-opacity="1" fill-rule="nonzero"/><path fill="#b2b0af" d="M 89.4375 89.847656 L 87.480469 88.691406 L 87.410156 73.855469 L 89.363281 75.011719 Z M 89.4375 89.847656 " fill-opacity="1" fill-rule="nonzero"/><path fill="#b2b0af" d="M 84.292969 77.90625 L 82.339844 76.75 L 82.339844 73.277344 L 84.292969 74.433594 Z M 84.292969 77.90625 " fill-opacity="1" fill-rule="nonzero"/><path fill="#b2b0af" d="M 84.292969 74.433594 L 82.339844 73.277344 L 96.246094 65.242188 L 98.199219 66.402344 Z M 84.292969 74.433594 " fill-opacity="1" fill-rule="nonzero"/><path fill="#ffffff" d="M 98.128906 66.472656 L 98.128906 69.949219 L 93.058594 72.914062 L 93.128906 87.75 L 89.4375 89.847656 L 89.363281 75.011719 L 84.292969 77.980469 L 84.292969 74.507812 Z M 98.128906 66.472656 " fill-opacity="1" fill-rule="nonzero"/><path fill="#b2b0af" d="M 71.257812 95.347656 L 69.300781 94.191406 C 69.589844 94.335938 69.953125 94.480469 70.316406 94.480469 C 71.113281 94.550781 71.910156 94.261719 72.851562 93.757812 C 73.792969 93.175781 74.660156 92.453125 75.386719 91.585938 C 76.183594 90.644531 76.761719 89.632812 77.195312 88.472656 L 79.152344 89.632812 C 78.71875 90.789062 78.136719 91.800781 77.339844 92.742188 C 76.617188 93.683594 75.746094 94.40625 74.804688 94.914062 C 73.863281 95.492188 72.996094 95.710938 72.269531 95.636719 C 71.910156 95.636719 71.546875 95.566406 71.257812 95.347656 Z M 71.257812 95.347656 " fill-opacity="1" fill-rule="nonzero"/><path fill="#b2b0af" d="M 76.328125 81.671875 L 78.28125 82.828125 C 78.570312 82.972656 78.863281 83.261719 79.078125 83.550781 C 79.515625 84.203125 79.730469 85.074219 79.730469 86.230469 C 79.730469 87.386719 79.515625 88.472656 79.078125 89.632812 L 77.125 88.472656 C 77.558594 87.316406 77.777344 86.230469 77.777344 85.070312 C 77.777344 83.988281 77.558594 83.046875 77.125 82.394531 C 76.90625 82.105469 76.6875 81.816406 76.328125 81.671875 Z M 76.328125 81.671875 " fill-opacity="1" fill-rule="nonzero"/><path fill="#b2b0af" d="M 68.359375 99.402344 L 66.40625 98.242188 C 65.96875 97.953125 65.609375 97.664062 65.246094 97.230469 C 64.523438 96.21875 64.085938 94.84375 64.085938 93.03125 C 64.085938 91.222656 64.449219 89.414062 65.171875 87.53125 C 65.96875 85.652344 66.984375 83.914062 68.289062 82.324219 C 69.589844 80.730469 71.113281 79.425781 72.777344 78.488281 C 74.445312 77.546875 75.890625 77.113281 77.269531 77.183594 C 77.992188 77.183594 78.644531 77.402344 79.222656 77.691406 L 81.179688 78.847656 C 80.601562 78.488281 79.949219 78.34375 79.222656 78.34375 C 77.921875 78.269531 76.398438 78.703125 74.734375 79.644531 C 73.066406 80.585938 71.546875 81.886719 70.242188 83.480469 C 68.941406 85.070312 67.925781 86.808594 67.128906 88.691406 C 66.40625 90.570312 66.042969 92.382812 66.042969 94.191406 C 66.042969 96 66.40625 97.375 67.203125 98.386719 C 67.5625 98.75 67.925781 99.113281 68.359375 99.402344 Z M 68.359375 99.402344 " fill-opacity="1" fill-rule="nonzero"/><path fill="#ffffff" d="M 82.410156 79.863281 C 83.136719 80.875 83.570312 82.25 83.570312 84.058594 C 83.570312 85.867188 83.207031 87.675781 82.484375 89.558594 C 81.6875 91.441406 80.671875 93.175781 79.367188 94.769531 C 78.066406 96.363281 76.542969 97.664062 74.878906 98.605469 C 73.210938 99.546875 71.691406 99.980469 70.386719 99.980469 C 69.085938 99.90625 67.996094 99.402344 67.273438 98.386719 C 66.550781 97.375 66.113281 96 66.113281 94.191406 C 66.113281 92.382812 66.476562 90.570312 67.203125 88.691406 C 67.996094 86.808594 69.011719 85.070312 70.316406 83.480469 C 71.621094 81.886719 73.140625 80.585938 74.804688 79.644531 C 76.472656 78.703125 77.921875 78.269531 79.296875 78.34375 C 80.601562 78.34375 81.613281 78.847656 82.410156 79.863281 Z M 79.152344 89.632812 C 79.585938 88.472656 79.804688 87.386719 79.804688 86.230469 C 79.804688 85.144531 79.585938 84.203125 79.152344 83.550781 C 78.71875 82.902344 78.136719 82.539062 77.339844 82.46875 C 76.617188 82.394531 75.746094 82.683594 74.804688 83.191406 C 73.863281 83.769531 72.996094 84.492188 72.269531 85.433594 C 71.546875 86.375 70.894531 87.386719 70.460938 88.546875 C 70.027344 89.632812 69.808594 90.863281 69.808594 91.945312 C 69.808594 93.105469 70.027344 93.972656 70.460938 94.625 C 70.894531 95.277344 71.546875 95.636719 72.269531 95.710938 C 73.066406 95.78125 73.863281 95.492188 74.804688 94.988281 C 75.746094 94.40625 76.617188 93.683594 77.339844 92.816406 C 78.136719 91.800781 78.71875 90.71875 79.152344 89.632812 " fill-opacity="1" fill-rule="nonzero"/><path fill="#b2b0af" d="M 60.539062 106.492188 L 58.582031 105.335938 L 55.46875 102.007812 L 57.421875 103.164062 Z M 60.539062 106.492188 " fill-opacity="1" fill-rule="nonzero"/><path fill="#b2b0af" d="M 57.0625 99.980469 L 55.105469 98.820312 C 56.191406 98.171875 57.0625 97.445312 57.640625 96.578125 L 59.597656 97.738281 C 59.015625 98.605469 58.148438 99.402344 57.0625 99.980469 Z M 57.0625 99.980469 " fill-opacity="1" fill-rule="nonzero"/><path fill="#b2b0af" d="M 57.714844 91.945312 L 59.667969 93.105469 C 60.175781 93.394531 60.394531 93.972656 60.394531 94.914062 C 60.394531 95.925781 60.105469 96.867188 59.523438 97.738281 L 57.570312 96.578125 C 58.148438 95.710938 58.4375 94.695312 58.4375 93.757812 C 58.4375 92.816406 58.21875 92.238281 57.714844 91.945312 Z M 57.714844 91.945312 " fill-opacity="1" fill-rule="nonzero"/><path fill="#b2b0af" d="M 54.019531 101.71875 L 52.0625 100.558594 L 55.105469 98.820312 L 57.0625 99.980469 Z M 54.019531 101.71875 " fill-opacity="1" fill-rule="nonzero"/><path fill="#b2b0af" d="M 60.683594 87.96875 L 62.636719 89.125 C 62.132812 88.835938 61.550781 88.761719 60.898438 88.761719 L 58.945312 87.605469 C 59.597656 87.53125 60.175781 87.675781 60.683594 87.96875 Z M 60.683594 87.96875 " fill-opacity="1" fill-rule="nonzero"/><path fill="#b2b0af" d="M 57.207031 90.066406 L 55.25 88.90625 C 56.628906 88.113281 57.859375 87.675781 58.945312 87.605469 L 60.898438 88.761719 C 59.886719 88.835938 58.65625 89.269531 57.207031 90.066406 Z M 57.207031 90.066406 " fill-opacity="1" fill-rule="nonzero"/><path fill="#b2b0af" d="M 50.398438 112.355469 L 48.441406 111.195312 L 48.371094 92.886719 L 50.324219 94.046875 Z M 50.398438 112.355469 " fill-opacity="1" fill-rule="nonzero"/><path fill="#ffffff" d="M 60.898438 100.34375 L 64.449219 104.175781 L 60.539062 106.421875 L 57.421875 103.09375 L 57.277344 103.164062 L 54.019531 105.046875 L 54.019531 110.113281 L 50.324219 112.210938 L 50.253906 93.902344 L 57.207031 89.921875 C 58.582031 89.125 59.8125 88.691406 60.898438 88.617188 C 61.988281 88.546875 62.785156 88.835938 63.289062 89.558594 C 63.871094 90.210938 64.160156 91.222656 64.160156 92.597656 C 64.160156 93.972656 63.871094 95.277344 63.289062 96.578125 C 62.785156 98.027344 61.988281 99.257812 60.898438 100.34375 Z M 59.597656 97.738281 C 60.175781 96.867188 60.464844 95.855469 60.464844 94.914062 C 60.464844 93.902344 60.175781 93.25 59.597656 93.03125 C 59.015625 92.816406 58.21875 93.03125 57.0625 93.683594 L 54.019531 95.421875 L 54.019531 101.789062 L 57.0625 100.050781 C 58.148438 99.402344 59.015625 98.605469 59.597656 97.738281 " fill-opacity="1" fill-rule="nonzero"/><path fill="#b2b0af" d="M 50.324219 94.046875 L 48.371094 92.886719 L 55.324219 88.90625 L 57.277344 90.066406 Z M 50.324219 94.046875 " fill-opacity="1" fill-rule="nonzero"/><path fill="#b2b0af" d="M 168.089844 41.074219 L 166.136719 39.914062 L 174.828125 34.921875 L 176.78125 36.078125 Z M 168.089844 41.074219 " fill-opacity="1" fill-rule="nonzero"/><path fill="#b2b0af" d="M 168.019531 33.546875 L 166.0625 32.386719 L 173.449219 28.117188 L 175.40625 29.277344 Z M 168.019531 33.546875 " fill-opacity="1" fill-rule="nonzero"/><path fill="#b2b0af" d="M 164.398438 46.574219 L 162.441406 45.414062 L 162.371094 27.105469 L 164.324219 28.261719 Z M 164.398438 46.574219 " fill-opacity="1" fill-rule="nonzero"/><path fill="#b2b0af" d="M 164.324219 28.261719 L 162.371094 27.105469 L 174.390625 20.160156 L 176.347656 21.316406 Z M 164.324219 28.261719 " fill-opacity="1" fill-rule="nonzero"/><path fill="#ffffff" d="M 176.421875 21.316406 L 176.421875 24.71875 L 168.019531 29.566406 L 168.019531 33.546875 L 175.40625 29.277344 L 175.40625 32.605469 L 168.019531 36.875 L 168.019531 41.144531 L 176.710938 36.152344 L 176.710938 39.554688 L 164.324219 46.644531 L 164.324219 28.261719 Z M 176.421875 21.316406 " fill-opacity="1" fill-rule="nonzero"/><g fill="#000000" fill-opacity="1"><g transform="translate(218.819616, 205.469117)"><g><path d="M 0.890625 -0.625 C 0.890625 -0.882812 0.945312 -1.082031 1.0625 -1.21875 C 1.1875 -1.351562 1.359375 -1.421875 1.578125 -1.421875 C 1.804688 -1.421875 1.984375 -1.351562 2.109375 -1.21875 C 2.234375 -1.082031 2.296875 -0.882812 2.296875 -0.625 C 2.296875 -0.363281 2.226562 -0.164062 2.09375 -0.03125 C 1.96875 0.101562 1.796875 0.171875 1.578125 0.171875 C 1.378906 0.171875 1.210938 0.109375 1.078125 -0.015625 C 0.953125 -0.140625 0.890625 -0.34375 0.890625 -0.625 Z M 0.890625 -0.625 "/></g></g></g></svg>